<svg version="1.0" xmlns="http://www.w3.org/2000/svg" width="682.667" height="682.667" viewBox="0 0 512 512"><g fill="#fff"><path d="M2.5 100.5L0 102.9v305.2l2.5 2.4 2.4 2.5h62.9c60 0 63.1-.1 65.3-1.9 3.2-2.6 3.2-8.6 0-11.2-2-1.6-4.1-1.9-15.2-1.9H105v-15h302v15H282.6c-124.3 0-124.3 0-127 2.1-3.6 2.8-3.6 8 0 10.8l2.7 2.1h348.8l2.4-2.5 2.5-2.4V196.9l-2.5-2.4c-3.1-3.2-6.9-3.2-10 0-2.4 2.3-2.5 3-2.5 15.7-.1 12.7-.2 13.1-1.5 9.3-2.8-7.9-12.4-14.5-21-14.5s-18.2 6.6-21 14.5c-1.3 3.6-1.4.2-1.4-32 .1-27.9.4-35.2 1.2-32.5 2.4 7.6 12.9 15 21.2 15 8.3 0 18.8-7.4 21.2-15 1-3.2 1.1-2.7 1.2 5.1.1 7.1.5 9.1 2.2 11.3 2.8 3.6 8 3.6 10.8 0 2-2.6 2.1-3.8 2.1-35.6v-32.9l-2.5-2.4-2.4-2.5h-65.2l-2.4 2.5-2.5 2.4V338H294v-15h37.8c41.4-.1 40.5.1 42.2-6.1 1.3-4.5 1.3-144.3 0-148.8-1.7-6-1.9-6-31.2-6.1-14.6 0-27.4.3-28.3.6-2.6 1-4.5 6.3-3.4 9.3 1.9 4.8 2.9 5 26.2 5.1H359v131H153V177h67.8c66.9 0 67.9 0 70-2 3-2.8 3-8.2 0-11-2.2-2-3.1-2-75.2-2-80.1.1-75.8-.3-77.6 6.1-1.3 4.5-1.3 144.3 0 148.8 1.7 6.2.8 6 42.3 6.1H218v15H75V102.9l-2.5-2.4-2.4-2.5H4.9l-2.4 2.5zM60 128.2c-.1 14.3-.2 15-1.5 11.4-2.9-8.3-12-14.6-21-14.6s-18.1 6.3-21 14.6c-1.3 3.6-1.4 2.9-1.5-11.4V113h45v15.2zm437 0c-.1 14.3-.2 15-1.5 11.4-2.9-8.3-12-14.6-21-14.6s-18.1 6.3-21 14.6c-1.3 3.6-1.4 2.9-1.5-11.4V113h45v15.2zM42.5 142.5c1.4 1.3 2.5 3.6 2.5 5 0 3.3-4.2 7.5-7.5 7.5s-7.5-4.2-7.5-7.5 4.2-7.5 7.5-7.5c1.4 0 3.7 1.1 5 2.5zm437 0c1.4 1.3 2.5 3.6 2.5 5s-1.1 3.7-2.5 5c-1.3 1.4-3.6 2.5-5 2.5s-3.7-1.1-5-2.5c-1.4-1.3-2.5-3.6-2.5-5s1.1-3.7 2.5-5c1.3-1.4 3.6-2.5 5-2.5s3.7 1.1 5 2.5zM22 163c4.5 4.6 9.9 7 15.5 7 8.3 0 18.8-7.4 21.2-15 .8-2.7 1.1 4.6 1.2 32.5 0 32.2-.1 35.6-1.4 32-2.8-7.9-12.4-14.5-21-14.5s-18.2 6.6-21 14.5c-1.3 3.6-1.4.2-1.4-32 .1-27.9.4-35.2 1.2-32.5.6 1.9 3.2 5.5 5.7 8zm20.5 59.5c1.4 1.3 2.5 3.6 2.5 5 0 3.3-4.2 7.5-7.5 7.5s-7.5-4.2-7.5-7.5 4.2-7.5 7.5-7.5c1.4 0 3.7 1.1 5 2.5zm437 0c1.4 1.3 2.5 3.6 2.5 5s-1.1 3.7-2.5 5c-1.3 1.4-3.6 2.5-5 2.5s-3.7-1.1-5-2.5c-1.4-1.3-2.5-3.6-2.5-5s1.1-3.7 2.5-5c1.3-1.4 3.6-2.5 5-2.5s3.7 1.1 5 2.5zM22 243c4.5 4.6 9.9 7 15.5 7 8.3 0 18.8-7.4 21.2-15 .8-2.7 1.1 4.6 1.2 32.5 0 32.2-.1 35.6-1.4 32-2.8-7.9-12.4-14.5-21-14.5s-18.2 6.6-21 14.5c-1.3 3.6-1.4.2-1.4-32 .1-27.9.4-35.2 1.2-32.5.6 1.9 3.2 5.5 5.7 8zm437 0c4.5 4.6 9.9 7 15.5 7 8.3 0 18.8-7.4 21.2-15 .8-2.7 1.1 4.6 1.2 32.5 0 32.2-.1 35.6-1.4 32-2.8-7.9-12.4-14.5-21-14.5s-18.2 6.6-21 14.5c-1.3 3.6-1.4.2-1.4-32 .1-27.9.4-35.2 1.2-32.5.6 1.9 3.2 5.5 5.7 8zM42.5 302.5c1.4 1.3 2.5 3.6 2.5 5 0 3.3-4.2 7.5-7.5 7.5s-7.5-4.2-7.5-7.5c0-1.4 1.1-3.7 2.5-5 1.3-1.4 3.6-2.5 5-2.5s3.7 1.1 5 2.5zm437 0c1.4 1.3 2.5 3.6 2.5 5 0 3.3-4.2 7.5-7.5 7.5s-7.5-4.2-7.5-7.5 4.2-7.5 7.5-7.5c1.4 0 3.7 1.1 5 2.5zM21.8 322.9c9.5 9.4 21.9 9.5 31.2.1 2.5-2.5 5.1-6.1 5.7-8 .8-2.7 1.1 6.5 1.2 39.7L60 398H15l.1-43.3c.1-29.5.4-42.1 1-39.8.6 1.8 3.1 5.4 5.7 8zm437 0c9.5 9.4 21.9 9.5 31.2.1 2.5-2.5 5.1-6.1 5.7-8 .8-2.7 1.1 6.5 1.2 39.7l.1 43.3h-45l.1-43.3c.1-29.5.4-42.1 1-39.8.6 1.8 3.1 5.4 5.7 8zM278 330.5v7.5h-44v-15h44v7.5zm159 45V398h-15v-12.5c0-12-.1-12.7-2.5-15l-2.4-2.5H94.9l-2.4 2.5c-2.4 2.3-2.5 3-2.5 15V398H75v-45h362v22.5z"/><path d="M32.5 350.5c-2.4 2.3-2.5 2.8-2.5 17s.1 14.7 2.5 17c1.3 1.4 3.6 2.5 5 2.5s3.7-1.1 5-2.5c2.4-2.3 2.5-2.8 2.5-17s-.1-14.7-2.5-17c-1.3-1.4-3.6-2.5-5-2.5s-3.7 1.1-5 2.5zm437 0c-2.4 2.3-2.5 2.8-2.5 17s.1 14.7 2.5 17c1.3 1.4 3.6 2.5 5 2.5s3.7-1.1 5-2.5c2.4-2.3 2.5-2.8 2.5-17s-.1-14.7-2.5-17c-1.3-1.4-3.6-2.5-5-2.5s-3.7 1.1-5 2.5z"/></g></svg>