<svg version="1.0" xmlns="http://www.w3.org/2000/svg" width="682.667" height="682.667" viewBox="0 0 512 512"><g fill="#fff"><path d="M154.4 106.2C50.2 210.6 54 206.5 51.9 218.9 47.7 244.5 73 267 97.6 259.5c2.7-.8 5-1.5 5.2-1.5.1 0 .2 10.1.2 22.5V303H66l-2.5-5c-6.7-13.1-20.4-20-35.3-17.7-10.4 1.5-20.1 8.8-24.9 18.6C.9 303.7.5 305.7.5 313c0 7.1.4 9.4 2.6 14 3.3 7 9.5 13.2 16.7 16.7 4.8 2.3 7 2.8 13.7 2.8 7.1 0 8.8-.4 14.7-3.3 7.4-3.6 12.9-9.1 16-16l1.9-4.2H103v42H39l-3.2 2.9-3.3 2.9-.3 19.6-.3 19.6-4.7 2.4c-5.7 3-12.2 9.6-15.3 15.6-3.4 6.7-3.8 18.6-.9 26.2 2.8 7.4 9.3 14.6 16.7 18.3 5.1 2.6 6.9 3 14.3 3 7.1 0 9.4-.4 14.1-2.6 15.1-7.1 22.9-23.9 18.4-39.4-2.9-10-9.5-17.8-18.3-21.7l-4.2-1.9V385h51v27.2l2.9 2.9c2.9 2.9 3.1 2.9 14 2.9h11l.3 26.9c.3 26.9.3 26.9 2.7 29.5 3.2 3.4 8 4.2 11.9 2.2 1.7-.9 3.4-2.2 3.9-2.8.4-.7 1-13.5 1.3-28.3l.5-27h18l.3 39.6.2 39.7 2.6 2.6c5.5 5.5 15.2 2.3 16.8-5.5.3-1.8.6-19.8.6-40.1v-36.9l8.8.3 8.7.3.2 26c.2 18.1.7 26.7 1.5 28.3 3 5.7 11.3 6.5 15.9 1.6 2.4-2.6 2.4-2.6 2.7-29.5l.3-26.9H246v79.2l2.9 2.9c3.9 3.8 9.7 4 13.8.5l2.8-2.4.3-40.1.3-40.1h17.8l.3 26.9c.3 26.9.3 26.9 2.7 29.5 4.6 4.9 12.9 4.1 15.9-1.6.8-1.6 1.3-10.2 1.5-28.3l.2-26 8.8-.3 8.7-.3v36.9c0 20.3.3 38.3.6 40.1 1.6 7.8 11.3 11 16.8 5.5l2.6-2.6.2-39.7.3-39.6h18l.5 27c.3 14.8.9 27.6 1.3 28.3.5.6 2.2 1.9 3.9 2.8 3.9 2 8.7 1.2 11.9-2.2 2.4-2.6 2.4-2.6 2.7-29.5l.3-26.9h11c10.9 0 11.1 0 14-2.9l2.9-2.9V385h51v24.9l-4.4 2c-6.3 2.7-12.8 9.1-16.2 15.8-2.5 5-2.9 6.9-2.9 14.3 0 7.1.4 9.4 2.6 14 3.7 8 8.1 12.5 15.7 16.2 6 3 7.6 3.3 15.2 3.3 7.4 0 9.2-.4 14.3-3 7.4-3.7 13.9-10.9 16.7-18.3 2.9-7.6 2.5-19.5-.9-26.2-3.1-6-9.6-12.6-15.3-15.6l-4.7-2.4-.3-19.6-.3-19.6-3.3-2.9-3.2-2.9h-64v-42h36.9l1.9 4.2c3.1 6.9 8.6 12.4 16 16 5.9 2.9 7.6 3.3 14.7 3.3 6.7 0 8.9-.5 13.7-2.8 7.2-3.5 13.4-9.7 16.7-16.7 3.5-7.3 3.6-20 .4-27.2-11.7-25.7-48.1-26.8-60.8-1.8l-2.5 5h-37v-22.6c0-21.1.1-22.6 1.7-21.9 17.2 6.5 37.8-1.5 45.8-17.9 5-10.3 5.1-21.9.3-32.5-1.6-3.4-11.5-14-38.4-41.1L382 130.5h-4.6c-6 0-9.4 3.5-9.4 9.8 0 4.1.3 4.4 34.9 39.2 19.3 19.2 35.5 36.3 36 37.8 1.6 4 1.4 11.3-.4 14.6-3.4 6.6-10.6 10-18.3 8.6-3.3-.6-12.5-9.4-81.2-78-52.5-52.4-78.4-77.6-80.3-78-1.5-.4-3.9-.4-5.5 0-1.8.4-27.7 25.6-80.2 78-68.7 68.6-77.9 77.4-81.3 78-6 1.1-10.7-.3-14.8-4.4-6.2-6.2-7.1-15-2.1-21.8 1.1-1.5 42.4-43.1 91.6-92.3L256 32.5l26.2 26.2c14.5 14.4 27.6 26.7 29.2 27.3 3.6 1.3 9.4-1.2 11.5-5.1 3.3-6 2.3-7.2-31.2-40.7L260.4 9h-8.9l-97.1 97.2zm168.3 69l66.3 66.3V398H123V241.5l66.2-66.2c36.5-36.5 66.5-66.3 66.8-66.3.3 0 30.3 29.8 66.7 66.2zm164 127.3c2.8 1.9 5.3 7.1 5.3 11.2 0 1.5-.9 4.2-2 6-7.5 12.4-25 7.5-25-7.1 0-3.8.6-5.2 3.3-8.2 5-5.4 11.9-6.1 18.4-1.9zm-444.1.8c3.1 2.8 3.7 4.2 4.1 8.4.4 4.1.1 5.9-1.6 8.6-4.1 6.7-13.4 8.4-19.5 3.6-10.6-8.4-5-23.9 8.7-23.9 4 0 5.3.5 8.3 3.3zm7 127.6c3.5 2.1 6.4 7.5 6.4 11.8 0 6-7.2 13.3-13.3 13.3-10.3 0-16.9-10.9-12.2-20.1 3.4-6.4 12.8-8.9 19.1-5zm426.5-.4c9.3 4.9 8.9 20.1-.6 24.1-6.9 2.8-13.6.6-17.5-5.8-6.9-11.4 6.1-24.5 18.1-18.3z"/><path d="M252.4 166.9c-1.2.5-3.1 2.2-4.3 3.7-2 2.5-2.1 3.8-2.1 21.5V211h-17.8l-.4-12.1-.3-12.1-3.4-3c-2.9-2.6-3.9-3-7.5-2.5-2.7.4-4.9 1.5-6.3 3.2-2.1 2.4-2.3 3.6-2.3 14.6V211h-5.1c-4.3 0-5.5.5-8 2.9-2.4 2.5-2.9 3.7-2.9 8v5.1h-11.9c-11 0-12.2.2-14.6 2.3-1.7 1.4-2.8 3.6-3.2 6.3-.5 3.6-.1 4.6 2.5 7.5l3 3.4 12.1.3 12.1.4V265h-38l-3.2 2.9c-2.7 2.4-3.3 3.6-3.3 7.1 0 3.5.6 4.7 3.3 7.1l3.2 2.9h38v17.8l-12.1.4-12.1.3-3 3.4c-2.6 2.9-3 3.9-2.5 7.5.4 2.7 1.5 4.9 3.2 6.3 2.4 2.1 3.6 2.3 14.6 2.3H192v5.1c0 4.3.5 5.5 2.9 8 2.5 2.4 3.7 2.9 8 2.9h5.1v11.9c0 11 .2 12.2 2.3 14.6 1.4 1.7 3.6 2.8 6.3 3.2 3.6.5 4.6.1 7.5-2.5l3.4-3 .3-12.1.4-12.1H246v38l2.9 3.2c2.4 2.7 3.6 3.3 7.1 3.3 3.5 0 4.7-.6 7.1-3.3l2.9-3.2v-38h17.8l.4 12.1.3 12.1 3.4 3c2.9 2.6 3.9 3 7.5 2.5 2.7-.4 4.9-1.5 6.3-3.2 2.1-2.4 2.3-3.6 2.3-14.6V339h5.1c4.3 0 5.5-.5 8-2.9 2.4-2.5 2.9-3.7 2.9-8V323h11.6c6.3 0 12.4-.5 13.5-1 2.4-1.3 4.9-6.1 4.9-9.4 0-1.4-1.3-4-2.9-5.8l-2.9-3.3-12.1-.3-12.1-.4V285h38l3.2-2.9c2.7-2.4 3.3-3.6 3.3-7.1 0-3.5-.6-4.7-3.3-7.1L358 265h-38v-17.8l12.1-.4 12.1-.3 2.9-3.3c1.6-1.8 2.9-4.4 2.9-5.8 0-3.3-2.5-8.1-4.9-9.4-1.1-.5-7.2-1-13.5-1H320v-5.1c0-4.3-.5-5.5-2.9-8-2.5-2.4-3.7-2.9-8-2.9H304v-11.9c0-11-.2-12.2-2.3-14.6-1.4-1.7-3.6-2.8-6.3-3.2-3.6-.5-4.6-.1-7.5 2.5l-3.4 3-.3 12.1-.4 12.1H266v-38l-2.7-3c-3-3.2-7.5-4.5-10.9-3.1zM300 275v44h-88v-88h88v44zm41.4-175.4c-6 2.9-7.3 10.7-2.5 15.5 5.4 5.4 14 3.2 16.2-4 1.4-4.7-.6-9.3-5.1-11.6-3.6-1.9-4.7-1.9-8.6.1z"/></g></svg>