<svg version="1.0" xmlns="http://www.w3.org/2000/svg" width="682.667" height="682.667" viewBox="0 0 512 512"><g fill="#fff"><path d="M278.5 1.9c-5.6 2.6-69.9 67.2-72 72.3-1.7 4.3-2 10.5-.5 14.2.5 1.4 2.8 4.6 5 7l4.1 4.5-61.4 68.8-61.4 68.8-6 1.7c-7.9 2.3-14.2 7.9-18.4 16.3-2.9 6-3.1 7-2.7 14.7.5 9.6 2.7 14.7 8.9 20.9 4.7 4.7 11.2 7.9 18 8.8l4.7.6 75.5 79.5 75.6 79.5-43 .5-43.1.5-2.4 2.8c-2.4 2.8-2.4 3.1-2.4 22.3 0 11.5.4 20.3 1 21.5 2.8 5.1-.8 4.9 108.5 4.9s105.7.2 108.5-4.9c.6-1.2 1-10.1 1-21.6v-19.7l-2.9-2.9-2.9-2.9h-87l-75.3-79.3c-41.4-43.5-78-82-81.3-85.5l-5.9-6.2 2.7-5c6.1-11.2 4.6-26.8-3.4-35.5-1.9-2-1.1-2.8 51.2-61.5 29.2-32.7 55-61.7 57.4-64.5l4.4-4.9 5.3 5.2 5.2 5.2 44.3-44.3C312.1 59.4 332 39 332 38.4c0-2-34.6-35.4-38.3-36.9-4.9-2-10.3-1.9-15.2.4z"/><path d="M305.3 101.3L257 149.5l19 43.4c10.4 23.8 19.7 44.4 20.5 45.8 2 2.9 6 4.6 9.5 3.8 1.7-.4 25.7-23.7 71.8-69.8l69.2-69.2v-4.2c0-2.9-.6-4.7-2.2-6.2C442.6 91 357.2 53 354.7 53c-.7 0-22.9 21.7-49.4 48.3zm91.3 90.6l-35.8 35.8 3.3 1.2c1.9.7 6.8 1.5 10.9 1.8 24.7 1.8 49.5-15.9 58.2-41.6 2.6-7.8 3-23.2.7-29.3l-1.4-3.8-35.9 35.9z"/></g></svg>