<svg version="1.0" xmlns="http://www.w3.org/2000/svg" width="341.333" height="341.333" viewBox="0 0 256 256"><g fill="#fff"><path d="M231 12.9c-.6 1.3-1 14.8-1 37V85h-11.9l-.6-3.8c-1.2-7.9-4.1-15.8-7.1-19.8-2.2-2.8-3.4-5.8-3.9-9.4-.7-5.2-6.8-18.4-10.1-22.2-1-1-2.4-1.8-3.2-1.8C191.6 28 4.5 142.3 1.5 145.1c-2 1.9-2 2 1 7.6 3.4 6.3 11 15.2 14.8 17.2 2.5 1.3 2.5 1.5 1.1 4.3-1.8 3.5-1.2 6.1 2.1 7.8l2.4 1.3-3.6 6.7c-2.1 3.8-3.4 7.3-3 8.3.9 2.3 24.4 15.9 26.9 15.5 1.8-.2 7.4-7.8 9.1-12.2.1-.5 1.6-.2 3.2.6 1.7.9 3.7 1.3 4.6.9.8-.3 4.6-4 8.3-8.1 5.6-6.1 7.7-7.7 11.3-8.7 2.5-.6 8.9-3.9 14.4-7.2l10-6.1 7.2 5.3c14.7 10.9 19.6 18.9 19.5 31.8-.2 26.3 32.1 39.9 50.6 21.3l4.4-4.4h35l.7 5c.4 2.7 1.6 6.1 2.7 7.5 3.6 4.6 6.7 5.5 19.8 5.5h12v-69h-12.5c-17.1 0-20.3 1.9-22.1 12.9l-.7 4.1h-35.2l-3.6-3.8c-4.8-5.2-11.9-8.3-20.3-9.1l-7-.6-2.3-4.5c-2.7-5.3-5-13.8-5.9-21.8l-.6-5.8 30.8-18.8c17-10.4 32-19.8 33.2-21 2.6-2.3 5.6-7.6 6.6-11.9l.6-2.7h21V53.2c0-29.6-.3-40.1-1.2-41-1.8-1.8-4.6-1.4-5.8.7zm-36.2 30.5c4.9 9.8 5.3 22.1.9 27.1-3.8 4.2-155.8 96.6-159.8 97.2-6.8 1-18.7-6.7-23.8-15.2l-2-3.4 90.7-55.5c49.8-30.5 90.8-55.3 91.2-55.1.3.2 1.6 2.4 2.8 4.9zm13.9 36.4l.6 5.1-6.4.3c-6.2.3-6.4.4-6.7 3.2-.4 3.6 1 4.6 7.1 4.6 5.4 0 5.9 1 2.5 6-1.6 2.3-11.3 8.8-32.3 21.7-16.5 10.2-31.1 19-32.5 19.6-2.3 1.1-23 13.8-51 31.4-9.7 6.1-10.9 6.6-15.8 6.5-5.5-.1-15.3-4.4-18.7-8.2-1.9-2.1-11.8 4.3 78.5-51 38.8-23.7 70.9-43.8 71.4-44.7 1.3-2.3 2.6-.2 3.3 5.5zm-69.3 81.9c.9 4.9 3 11.6 4.6 15l2.9 6.3-3.2 2.1c-1.8 1.2-4.1 3.3-5.3 4.6l-2 2.4-4-5.2c-3.6-4.9-12.8-13.4-18.3-17-2.4-1.5-2.4-1.6 10-9.2 6.8-4.2 12.7-7.7 13-7.7.3 0 1.4 3.9 2.3 8.7zm-84.6 18c3.5 2.3 7.3 4.5 8.3 4.8 2.7.9 2.4 1.6-1.8 5.7l-3.8 3.7-14.4-8.4c-7.9-4.6-14.8-8.8-15.2-9.2-.4-.4 4-.8 9.9-.8h10.7l6.3 4.2zM247 210.5V237h-6.3c-11.1 0-10.7.9-10.7-26.9 0-17.1.3-24 1.2-24.9.7-.7 4.2-1.2 8.5-1.2h7.3v26.5zM37.9 192.1c3.9 2.2 7.1 4.3 7.1 4.5 0 .5-3 6.6-3.6 7.3-.2.2-3.1-1.3-6.6-3.3-9.9-5.6-9.4-4.9-6.9-9 1.3-2 2.4-3.6 2.6-3.6.2 0 3.5 1.8 7.4 4.1zm132.2-1.6c10.7 5.6 15.1 19 9.5 29.5-3.2 6.1-9.9 10.6-17.2 11.6-4.9.6-6.2.3-11.2-2.2-7.9-4.1-11.5-9.4-12-17.8-.4-5.5 0-7.1 2.3-11.4 4.5-8.3 12.2-12.6 20.9-11.6 2.7.3 6.1 1.1 7.7 1.9zM221 210v9h-30.7v-18H221v9z"/><path d="M154 194.1c-11.2 4.5-13.8 20.2-4.8 28.6 9.2 8.6 24.4 3.8 27.8-8.7 3.5-12.9-10.4-24.9-23-19.9zm12.8 10.1c3.4 3.3 3 8.9-.9 12.2-1.7 1.4-4.1 2.6-5.4 2.6-3.8 0-8.5-4.6-8.5-8.4 0-8.3 8.7-12 14.8-6.4z"/></g></svg>