<svg version="1.0" xmlns="http://www.w3.org/2000/svg" width="1149.333" height="1306.667" viewBox="0 0 862 980"><path d="M422.5 1.4c-11.4 2.8-23.2 12.4-28 22.8-3.9 8.5-4.5 16.1-4.5 54.2 0 30.9-.2 35.7-1.5 35.3-.8-.4-13.2-7.5-27.7-15.8-14.5-8.4-28.5-16.2-31.3-17.3-3.7-1.5-7.4-2-14.5-2-8.7-.1-10.1.2-16.3 3.1-22.3 10.6-31.2 35-20.7 56.9 5.2 10.6 9.2 13.5 62.8 44.4l49.2 28.4v103.8c0 57.1-.2 103.8-.4 103.8s-24.6-14-54.2-31.1c-29.7-17.1-69.3-39.9-88.1-50.7l-34.2-19.7-.1-59c0-49.8-.2-60-1.5-65-6.9-26.2-35.1-39.4-59-27.6-11 5.4-19.7 16.4-22.4 28.2-.6 2.5-1.1 19.4-1.1 39.3 0 27.4-.3 34.7-1.2 34.3-.7-.2-15.7-8.7-33.3-18.9-17.6-10.1-34-19.2-36.5-20.2-6.8-2.7-17.4-3.2-24.5-1.1-13.2 3.7-22.1 11.3-27.8 23.3-3 6.2-3.2 7.5-3.2 17.3 0 10.1.1 10.8 3.8 18.1 2.5 5.1 5.3 9.1 8.6 12 2.6 2.4 19.2 12.6 36.9 22.8 17.7 10.2 32.1 18.7 32.1 19 0 .3-11.7 7.2-26.1 15.5-29.5 16.9-34 20.1-38.7 27.4-11.8 18.4-8.2 42.1 8.6 55.7 7.7 6.3 14.9 8.7 25.8 8.8 6.6.1 10.3-.4 13.9-1.8 2.8-1.1 26.4-14.3 52.5-29.3 26.1-15.1 47.8-27.5 48.1-27.6.9-.3 177 101.4 177 102.2 0 .3-39.2 23.2-87.1 50.8l-87 50.3-49.7-28.7c-29-16.7-52.2-29.4-55.7-30.6-4.7-1.5-7.9-1.8-14.3-1.4-33 1.9-50.5 39.7-30.9 66.4 5.2 7 7.4 8.5 41 27.8L87 640.3l-5.2 3.1c-2.9 1.8-18.4 10.8-34.5 20-16.1 9.3-30.8 18.2-32.7 19.7-6.8 5.7-12.4 16.6-14.1 27.4-.3 2.3-.1 7 .4 10.5 3.7 22.6 25.2 38.6 47.3 35.1 8-1.3 15.3-5 51.3-25.9l29-16.8.5 36 .5 36.1 3.2 6.8c4.3 8.9 11.9 16.9 20.2 21 6.2 3 7.1 3.2 18.1 3.2 10.9 0 11.8-.2 18.1-3.2 11.7-5.7 20.4-17.3 22.9-30.3.6-3.1 1-28.1 1-61.9v-56.6l87.9-50.8c48.3-27.9 88.2-50.7 88.5-50.7.3 0 .6 46 .6 102.2v102.3L340.3 796c-53.9 31-56.7 33-62.2 44.2-4.2 8.5-5.5 16.2-4.2 24.4 4 26.2 30.6 42.5 55.2 33.8 2.4-.8 17-8.8 32.4-17.8l28-16.2.5 41c.6 43.7.5 42.9 5.8 53.2 2.9 5.6 10.8 13.1 17.2 16.4 22.5 11.4 48.5 1.6 58.2-22 2.2-5.3 2.3-6.8 2.8-47.2l.5-41.7 28.4 16.4c15.6 9 30.5 17.1 33 18 20 6.8 42.2-2.8 51.4-22.2 3-6.3 3.2-7.6 3.2-17.3 0-9.7-.2-11-3.2-17.2-1.7-3.7-5.1-8.8-7.4-11.3-4.6-5-4.6-5-66.6-40.9L474 766.8V564.9l5.8 3.3c3.3 1.8 43.3 24.9 89 51.3l83.2 48v57.1c0 54.5.1 57.5 2 63.7 3.4 11 11.7 20.2 23 25.6 4.9 2.3 6.7 2.6 16.6 2.6 10.7 0 11.2-.1 18.6-3.8 10.9-5.3 17.8-13.5 22.1-26.2.5-1.7 1.3-18.1 1.6-36.6l.6-33.5 32.5 18.8c19.7 11.4 35 19.6 38.9 20.8 23.8 7.5 48.8-8.2 53.2-33.4 2.2-12.9-2.6-27-12.3-36.2-5.5-5.2-7.9-6.7-48.5-30C787 648.8 776 642.3 776 642c0-.3 12.9-8 28.6-17 19.1-11 30.6-18.3 34.5-21.8 15.9-14.6 18-38.4 4.9-55.8-10.5-13.9-29.6-19.8-46-14.1-3.6 1.3-28.7 15.1-56.3 31.1-42.6 24.6-50.2 28.7-52 27.8-1.2-.5-16.6-9.2-34.2-19.4s-55.6-32.1-84.5-48.7c-28.9-16.7-53.5-31-54.8-31.8-2.6-1.6-5.5.2 132.9-79.6l44.7-25.8 48.8 28.3c26.9 15.5 51.1 29 53.7 30 19.2 7.3 42.4-1.7 51.7-20.2 8.5-16.8 4.9-36.5-8.9-49.2-3.9-3.6-14.9-10.5-33.5-21.2-15.2-8.7-27.3-16.2-26.9-16.6.4-.4 13.2-7.8 28.3-16.5 15.1-8.7 30.4-17.7 34-20.1 23-15.1 25.5-46.8 5-65.7-8.5-7.9-14.6-10.1-28-10.2-13 0-12.5-.2-52.2 22.8-15.8 9.2-28.9 16.7-29.2 16.7-.4 0-.6-13.2-.6-29.3-.1-16-.5-32.4-.9-36.3-2-17-13-30.6-29-35.9-8.5-2.8-21.7-1.8-30.4 2.2-8.5 4-15.5 11.1-19.9 20l-3.3 6.8-.5 60.9-.5 61-88 50.8c-48.3 27.9-88.3 50.8-88.7 50.8-.5 0-.7-46-.6-102.2l.3-102.1 8-4.7c4.4-2.6 26.7-15.5 49.5-28.6 46.1-26.6 49.6-29.2 55.3-41.1 3-6.3 3.2-7.6 3.2-17.3 0-9.7-.2-11-3.2-17.2-10.3-21.7-34.6-30.7-55.7-20.4-3.9 1.9-18.3 9.9-32.1 17.9l-25 14.5-.5-41.6-.5-41.7-3.2-6.8c-8.7-18.4-28.4-28-47.8-23.3z" fill="#fff"/></svg>