<svg version="1.0" xmlns="http://www.w3.org/2000/svg" width="608" height="453.333" viewBox="0 0 456 340"><g fill="#fff"><path d="M98.5 41.4c.2 1.1 1.6 11.5 3.1 23.1 1.5 11.5 3.2 21.5 3.8 22.1 1 1.1 107.1 56.5 110.9 58 1.6.6 1.7-.2 1.5-12.2l-.3-12.8-46-19.8c-25.3-10.8-46.4-19.9-46.8-20-.4-.2-1.8-8.2-3-17.8l-2.2-17.4-10.7-2.7C98 39.2 98 39.2 98.5 41.4zm245 .4c-5.5 1.4-10.2 2.6-10.4 2.8-.2.2-1.1 8-2.1 17.4-1 9.4-1.9 17.2-2.1 17.4-.2.2-21.2 9.3-46.6 20.2L236 119.5v12.7c0 7.1.3 12.8.6 12.8s4.2-2 8.7-4.4c4.5-2.4 18.8-9.9 31.7-16.6 61.8-32.2 69.6-36.3 70.7-37.4.9-.9 6.8-46.7 6-47.2-.1 0-4.7 1-10.2 2.4z"/><path d="M136.1 53.7c.1 2.6.4 7.9.8 11.6l.6 6.8 10 3.8c5.5 2.1 25.6 9.5 44.6 16.5l34.7 12.8 44.3-16.5 44.4-16.4.9-11.2c.4-6.2.6-11.4.4-11.6-.5-.5-5.1.6-59.1 14.6L226.9 72l-43.7-11c-24-6.1-44.5-11.3-45.4-11.6-1.6-.5-1.8.1-1.7 4.3zm34.7 153.5c-.3 27.9-.3 28.4-2.7 32.2-2.8 4.4-8.7 7.5-14.3 7.6H150v12h4.8c11.8 0 22.6-6.8 27.3-17.2 2.3-5.1 2.4-6.2 2.7-34.1l.3-28.7h-14l-.3 28.2zM316 181.4c1.4 1.3 9.7 8.8 18.5 16.7 8.8 8 27.6 24.9 41.8 37.7L402 259h21.5l-2.5-2.3c-1.4-1.3-14-12.7-28-25.3-14-12.7-32.9-29.6-41.8-37.7L334.8 179h-21.3l2.5 2.4zm73.7 9.1L377 202h21.3l6.1-5.4c3.4-2.9 9-8.1 12.6-11.4l6.5-6.1-10.6-.1h-10.6l-12.6 11.5zm-314.6-4.8c-2.3 3.2-4 6.3-3.9 6.8.2.6 10.4 15.8 22.8 33.8l22.5 32.6 8.9.1h8.8l-1.8-2.8c-3-4.6-51.6-74.6-52.4-75.5-.4-.5-2.6 1.8-4.9 5zm166.2.5l-4.2 6.1 3.2 4.6c1.8 2.5 12.2 17.5 23.1 33.3l19.8 28.8h17.9l-6.1-8.8c-3.4-4.8-15.7-22.5-27.3-39.4-11.7-16.9-21.4-30.7-21.7-30.8-.3 0-2.4 2.8-4.7 6.2zM40.6 235.5C32 247.8 25 258.2 25 258.5c0 .3 3.9.4 8.7.3l8.7-.3 15.2-22c8.4-12.1 15.3-22.3 15.4-22.8 0-.4-3.8-.7-8.4-.7h-8.4l-15.6 22.5zm174.2-11.2c-4.2 6.2-11.3 16.5-15.8 22.9l-8.1 11.8h17.7l15-21.8c8.3-11.9 15.4-22.3 15.8-23 .5-.9-1.3-1.2-8.1-1.2l-8.8.1-7.7 11.2zm111.8 22.9L314 258.5l10.5.3 10.6.3 12.4-11.2c6.9-6.2 12.5-11.4 12.5-11.6 0-.2-4.7-.3-10.4-.3h-10.5l-12.5 11.2z"/></g></svg>