<svg width="60" height="21" fill="none" xmlns="http://www.w3.org/2000/svg"><path d="M3.75 13H1.057V4.273h2.812c.847 0 1.571.174 2.174.524a3.432 3.432 0 011.385 1.496c.32.647.481 1.423.481 2.326 0 .91-.162 1.692-.486 2.348a3.462 3.462 0 01-1.414 1.509c-.62.35-1.373.524-2.259.524zm-1.636-.938h1.568c.721 0 1.32-.139 1.794-.417a2.574 2.574 0 001.06-1.189c.234-.514.35-1.126.35-1.837 0-.704-.115-1.31-.345-1.82A2.546 2.546 0 005.51 5.625c-.457-.277-1.027-.415-1.71-.415H2.114v6.853zM9.545 13V6.455h1.006V13H9.545zm.512-7.636a.715.715 0 01-.507-.2.643.643 0 01-.21-.482c0-.188.07-.348.21-.482a.715.715 0 01.507-.2.7.7 0 01.503.2.638.638 0 01.213.482.638.638 0 01-.213.481.7.7 0 01-.503.2zM25.803 17.36V19h-.42v-3.636h.42v1.335h.035a.77.77 0 01.288-.336c.129-.084.3-.126.515-.126.186 0 .348.038.488.112.14.073.248.186.325.34.078.15.117.344.117.578V19h-.419v-1.704c0-.217-.056-.385-.169-.503-.111-.12-.265-.18-.463-.18a.773.773 0 00-.37.088.636.636 0 00-.255.253.825.825 0 00-.092.405zm3.643 1.697c-.247 0-.463-.059-.649-.176a1.193 1.193 0 01-.433-.492 1.663 1.663 0 01-.154-.738c0-.285.051-.532.154-.744.104-.212.249-.377.433-.494.186-.117.402-.176.649-.176.246 0 .461.059.646.176.186.117.33.282.433.494.104.212.156.46.156.744 0 .281-.052.527-.156.738a1.18 1.18 0 01-.433.492 1.18 1.18 0 01-.646.176zm0-.377a.72.72 0 00.461-.143.848.848 0 00.268-.379c.058-.156.087-.325.087-.507a1.46 1.46 0 00-.087-.51.858.858 0 00-.268-.382.714.714 0 00-.461-.145.714.714 0 00-.462.145.86.86 0 00-.268.382 1.463 1.463 0 00-.087.51c0 .182.029.351.087.507a.849.849 0 00.268.379.72.72 0 00.462.143zm1.875.32v-2.727h.405v.426h.035a.685.685 0 01.276-.34.824.824 0 01.456-.122c.18 0 .33.041.45.123a.8.8 0 01.281.339h.029a.794.794 0 01.314-.336.956.956 0 01.503-.126c.243 0 .443.077.598.23.155.15.233.387.233.708V19h-.42v-1.825c0-.201-.055-.345-.165-.432a.61.61 0 00-.388-.13c-.192 0-.34.059-.446.175a.621.621 0 00-.158.436V19h-.426v-1.868a.49.49 0 00-.151-.375.54.54 0 00-.389-.143.574.574 0 00-.305.087.656.656 0 00-.228.241.713.713 0 00-.085.354V19h-.419zm5.49.057c-.264 0-.49-.058-.68-.174a1.169 1.169 0 01-.44-.49 1.671 1.671 0 01-.152-.735c0-.28.05-.526.153-.739a1.15 1.15 0 011.076-.682c.142 0 .282.024.42.071.139.048.265.125.379.231.113.105.204.245.271.42.068.173.102.387.102.642v.177h-2.103v-.362h1.676a.895.895 0 00-.092-.412.696.696 0 00-.653-.39.753.753 0 00-.434.124.818.818 0 00-.278.32.94.94 0 00-.098.422v.242c0 .206.035.38.107.523.072.142.172.25.3.325a.88.88 0 00.445.11c.11 0 .21-.015.298-.046a.639.639 0 00.233-.142.645.645 0 00.151-.238l.405.114a.898.898 0 01-.215.362c-.1.103-.225.184-.373.242a1.383 1.383 0 01-.499.085zM39.982 19v-2.727h.42V19h-.42zm.213-3.182a.298.298 0 01-.211-.083.268.268 0 01-.087-.2c0-.079.029-.146.087-.201a.298.298 0 01.211-.084c.082 0 .152.028.21.084a.264.264 0 01.089.2c0 .078-.03.145-.09.2a.291.291 0 01-.209.084zm1.393 1.541V19h-.42v-2.727h.406v.426h.035a.778.778 0 01.291-.334.905.905 0 01.505-.128.99.99 0 01.484.114.765.765 0 01.323.34c.077.152.116.344.116.576V19h-.42v-1.704c0-.215-.055-.382-.166-.501a.592.592 0 00-.458-.181.732.732 0 00-.359.087.624.624 0 00-.247.253.84.84 0 00-.09.405zm3.692-1.086v.355h-1.414v-.355h1.414zm-1.002-.654h.42v2.6c0 .118.016.207.05.266a.268.268 0 00.136.117.543.543 0 00.175.029.747.747 0 00.114-.007l.071-.015.085.377a.87.87 0 01-.312.05.844.844 0 01-.348-.077.692.692 0 01-.28-.232.668.668 0 01-.11-.395V15.62zm2.746 3.438a1.28 1.28 0 01-.68-.174 1.168 1.168 0 01-.439-.49 1.671 1.671 0 01-.152-.735c0-.28.05-.526.152-.739.103-.214.247-.381.43-.5.185-.121.4-.182.646-.182.142 0 .283.024.421.071.139.048.265.125.378.231.114.105.205.245.272.42.068.173.101.387.101.642v.177h-2.102v-.362h1.676a.893.893 0 00-.092-.412.694.694 0 00-.654-.39.752.752 0 00-.433.124.817.817 0 00-.279.32.94.94 0 00-.097.422v.242c0 .206.035.38.106.523.072.142.172.25.3.325a.88.88 0 00.446.11c.11 0 .21-.015.298-.046a.638.638 0 00.233-.142.646.646 0 00.15-.238l.406.114a.897.897 0 01-.215.362c-.1.103-.225.184-.373.242a1.384 1.384 0 01-.499.085zm2.186-3.693V19h-.42v-3.636h.42zm1.186 0V19h-.419v-3.636h.42zm1.911 3.693a1.28 1.28 0 01-.68-.174 1.168 1.168 0 01-.438-.49 1.671 1.671 0 01-.153-.735c0-.28.05-.526.153-.739a1.15 1.15 0 011.076-.682c.142 0 .282.024.42.071.139.048.265.125.379.231.113.105.204.245.271.42.068.173.102.387.102.642v.177h-2.103v-.362h1.676a.893.893 0 00-.092-.412.694.694 0 00-.653-.39.752.752 0 00-.434.124.817.817 0 00-.278.32.94.94 0 00-.098.422v.242c0 .206.035.38.106.523.073.142.173.25.3.325a.88.88 0 00.446.11c.11 0 .21-.015.298-.046a.638.638 0 00.233-.142.646.646 0 00.151-.238l.405.114a.897.897 0 01-.215.362c-.1.103-.225.184-.373.242a1.384 1.384 0 01-.499.085zm2.875 0a1.18 1.18 0 01-.66-.181 1.18 1.18 0 01-.427-.5 1.675 1.675 0 01-.149-.725c0-.277.051-.522.153-.734.103-.213.246-.38.43-.499.184-.12.4-.18.646-.18.191 0 .364.035.518.106.154.07.28.17.378.298a.93.93 0 01.183.448h-.419a.65.65 0 00-.213-.33.638.638 0 00-.44-.146.736.736 0 00-.43.127.833.833 0 00-.286.357 1.323 1.323 0 00-.1.538c0 .211.032.395.099.55a.842.842 0 00.284.365c.123.086.267.13.433.13a.748.748 0 00.296-.057.612.612 0 00.357-.42h.42a.97.97 0 01-.544.741 1.185 1.185 0 01-.53.112zm2.871-2.784v.355H56.64v-.355h1.413zm-1.001-.654h.419v2.6c0 .118.017.207.051.266.036.058.08.097.135.117a.543.543 0 00.176.029.746.746 0 00.113-.007l.072-.015.085.377a.867.867 0 01-.313.05.843.843 0 01-.348-.077.692.692 0 01-.28-.232.669.669 0 01-.11-.395V15.62z" fill="#BDBDBD"/><path d="M17.557 7.92l-.904.256a1.677 1.677 0 00-.251-.439 1.22 1.22 0 00-.443-.358c-.188-.093-.428-.14-.72-.14-.4 0-.735.092-1.002.277-.264.181-.396.413-.396.694 0 .25.09.448.273.593.181.144.465.265.852.362l.972.238c.585.142 1.02.36 1.308.652.287.29.43.664.43 1.121 0 .375-.108.71-.324 1.006a2.148 2.148 0 01-.895.699c-.383.17-.83.255-1.338.255-.667 0-1.22-.144-1.657-.434-.438-.29-.715-.713-.831-1.27l.954-.239c.091.353.263.617.516.793.255.176.59.264 1.001.264.469 0 .841-.1 1.117-.298.278-.202.417-.444.417-.725a.762.762 0 00-.238-.57c-.16-.157-.404-.274-.733-.35l-1.091-.256c-.6-.142-1.04-.362-1.321-.66-.279-.302-.418-.678-.418-1.13 0-.369.104-.696.311-.98.21-.284.496-.507.857-.669a3.008 3.008 0 011.236-.243c.647 0 1.156.142 1.525.426.372.285.637.66.793 1.125zm2.28 7.534a2.205 2.205 0 01-.732-.119l.255-.886c.245.062.46.085.648.068a.775.775 0 00.499-.251c.147-.148.282-.388.405-.72l.187-.512-2.42-6.58h1.09l1.807 5.217h.069l1.806-5.216h1.091l-2.778 7.5c-.125.338-.28.617-.465.839-.184.224-.399.39-.643.499a1.983 1.983 0 01-.818.162zm10.67-7.534l-.903.256a1.677 1.677 0 00-.252-.439 1.22 1.22 0 00-.443-.358c-.188-.093-.428-.14-.72-.14-.4 0-.735.092-1.002.277-.264.181-.396.413-.396.694 0 .25.091.448.273.593.182.144.466.265.852.362l.972.238c.585.142 1.021.36 1.308.652.287.29.43.664.43 1.121 0 .375-.108.71-.323 1.006a2.148 2.148 0 01-.895.699c-.384.17-.83.255-1.338.255-.668 0-1.22-.144-1.658-.434-.438-.29-.715-.713-.831-1.27l.954-.239c.091.353.263.617.516.793.256.176.59.264 1.002.264.468 0 .84-.1 1.116-.298.278-.202.418-.444.418-.725a.762.762 0 00-.24-.57c-.158-.157-.402-.274-.732-.35l-1.09-.256c-.6-.142-1.04-.362-1.322-.66-.278-.302-.418-.678-.418-1.13 0-.369.104-.696.312-.98.21-.284.495-.507.856-.669a3.007 3.007 0 011.236-.243c.648 0 1.156.142 1.525.426a2.3 2.3 0 01.793 1.125zm4.48-1.465v.852h-3.392v-.852h3.392zm-2.404-1.569h1.006v6.239c0 .284.041.497.124.64a.64.64 0 00.323.28c.134.046.275.069.422.069.111 0 .202-.006.273-.017l.17-.034.205.903a2.046 2.046 0 01-.285.077 2.103 2.103 0 01-.465.042 2.01 2.01 0 01-.835-.183 1.66 1.66 0 01-.673-.558c-.177-.25-.265-.566-.265-.946V4.886zm6.59 8.25c-.63 0-1.174-.139-1.631-.417a2.803 2.803 0 01-1.053-1.176c-.244-.506-.367-1.094-.367-1.765 0-.67.123-1.261.367-1.772.247-.515.59-.915 1.031-1.202.443-.29.96-.435 1.551-.435.341 0 .678.057 1.01.17.333.114.635.3.908.555.273.253.49.588.652 1.005.162.418.243.932.243 1.543v.426h-5.046v-.87h4.023c0-.368-.074-.698-.221-.988a1.67 1.67 0 00-.623-.686 1.742 1.742 0 00-.946-.251c-.4 0-.747.1-1.04.298-.29.196-.512.452-.669.767a2.254 2.254 0 00-.234 1.014v.58c0 .494.085.913.256 1.257.173.34.413.6.72.78a2.11 2.11 0 001.07.264c.264 0 .502-.037.715-.11.216-.077.403-.191.559-.342.156-.153.277-.344.362-.57l.972.272c-.103.33-.275.62-.516.87-.242.246-.54.44-.895.579a3.318 3.318 0 01-1.197.204zm4.24-.136V6.455h.972v1.022h.085c.137-.35.357-.62.661-.814.304-.196.669-.294 1.095-.294.432 0 .791.098 1.078.294.29.194.516.465.678.814h.068a1.91 1.91 0 01.754-.805c.336-.202.738-.303 1.206-.303.585 0 1.064.184 1.436.55.373.364.559.93.559 1.7V13h-1.006V8.62c0-.484-.132-.829-.396-1.036a1.467 1.467 0 00-.934-.311c-.46 0-.816.139-1.07.417-.252.276-.379.625-.379 1.049V13h-1.022V8.517c0-.372-.121-.672-.363-.9-.241-.23-.552-.344-.933-.344-.261 0-.505.07-.733.209a1.57 1.57 0 00-.545.58 1.71 1.71 0 00-.205.847V13h-1.005zM58.48 7.92l-.904.256a1.677 1.677 0 00-.251-.439 1.22 1.22 0 00-.443-.358c-.188-.093-.428-.14-.72-.14-.401 0-.735.092-1.002.277-.264.181-.396.413-.396.694 0 .25.09.448.273.593.181.144.465.265.852.362l.971.238c.586.142 1.022.36 1.309.652.287.29.43.664.43 1.121 0 .375-.108.71-.324 1.006a2.147 2.147 0 01-.895.699c-.383.17-.83.255-1.338.255-.667 0-1.22-.144-1.657-.434-.438-.29-.715-.713-.831-1.27l.954-.239c.091.353.263.617.516.793.255.176.59.264 1.001.264.469 0 .841-.1 1.117-.298.278-.202.417-.444.417-.725a.761.761 0 00-.238-.57c-.16-.157-.404-.274-.733-.35l-1.091-.256c-.6-.142-1.04-.362-1.321-.66-.279-.302-.418-.678-.418-1.13 0-.369.104-.696.311-.98.21-.284.496-.507.857-.669a3.008 3.008 0 011.236-.243c.647 0 1.156.142 1.525.426.372.285.636.66.793 1.125z" fill="#fff"/><path stroke="#fff" d="M1.123 3.576L32.952.502m-.076.004l26 4"/><g filter="url(#filter0_d_706_14530)"><rect x="32.4" width="1" height="1" rx=".5" fill="#fff"/><rect x="32.65" y=".25" width=".5" height=".5" rx=".25" stroke="#fff" stroke-width=".5" stroke-linejoin="round"/></g><defs><filter id="filter0_d_706_14530" x="28.4" y="0" width="9" height="9" filterUnits="userSpaceOnUse" color-interpolation-filters="sRGB"><feFlood flood-opacity="0" result="BackgroundImageFix"/><feColorMatrix in="SourceAlpha" values="0 0 0 0 0 0 0 0 0 0 0 0 0 0 0 0 0 0 127 0" result="hardAlpha"/><feOffset dy="4"/><feGaussianBlur stdDeviation="2"/><feComposite in2="hardAlpha" operator="out"/><feColorMatrix values="0 0 0 0 0 0 0 0 0 0 0 0 0 0 0 0 0 0 0.25 0"/><feBlend in2="BackgroundImageFix" result="effect1_dropShadow_706_14530"/><feBlend in="SourceGraphic" in2="effect1_dropShadow_706_14530" result="shape"/></filter></defs></svg>