<svg viewBox="0 0 1149.333 1306.667" xmlns="http://www.w3.org/2000/svg" xmlns:xlink="http://www.w3.org/1999/xlink"><style>:root&gt;svg{display:none}:root&gt;svg:target{display:block}</style><svg version="1.0" viewBox="0 0 512 512" id="cinema" xmlns="http://www.w3.org/2000/svg"><path d="M2.5 100.5L0 102.9v305.2l2.5 2.4 2.4 2.5h62.9c60 0 63.1-.1 65.3-1.9 3.2-2.6 3.2-8.6 0-11.2-2-1.6-4.1-1.9-15.2-1.9H105v-15h302v15H282.6c-124.3 0-124.3 0-127 2.1-3.6 2.8-3.6 8 0 10.8l2.7 2.1h348.8l2.4-2.5 2.5-2.4V196.9l-2.5-2.4c-3.1-3.2-6.9-3.2-10 0-2.4 2.3-2.5 3-2.5 15.7-.1 12.7-.2 13.1-1.5 9.3-2.8-7.9-12.4-14.5-21-14.5s-18.2 6.6-21 14.5c-1.3 3.6-1.4.2-1.4-32 .1-27.9.4-35.2 1.2-32.5 2.4 7.6 12.9 15 21.2 15 8.3 0 18.8-7.4 21.2-15 1-3.2 1.1-2.7 1.2 5.1.1 7.1.5 9.1 2.2 11.3 2.8 3.6 8 3.6 10.8 0 2-2.6 2.1-3.8 2.1-35.6v-32.9l-2.5-2.4-2.4-2.5h-65.2l-2.4 2.5-2.5 2.4V338H294v-15h37.8c41.4-.1 40.5.1 42.2-6.1 1.3-4.5 1.3-144.3 0-148.8-1.7-6-1.9-6-31.2-6.1-14.6 0-27.4.3-28.3.6-2.6 1-4.5 6.3-3.4 9.3 1.9 4.8 2.9 5 26.2 5.1H359v131H153V177h67.8c66.9 0 67.9 0 70-2 3-2.8 3-8.2 0-11-2.2-2-3.1-2-75.2-2-80.1.1-75.8-.3-77.6 6.1-1.3 4.5-1.3 144.3 0 148.8 1.7 6.2.8 6 42.3 6.1H218v15H75V102.9l-2.5-2.4-2.4-2.5H4.9l-2.4 2.5zM60 128.2c-.1 14.3-.2 15-1.5 11.4-2.9-8.3-12-14.6-21-14.6s-18.1 6.3-21 14.6c-1.3 3.6-1.4 2.9-1.5-11.4V113h45v15.2zm437 0c-.1 14.3-.2 15-1.5 11.4-2.9-8.3-12-14.6-21-14.6s-18.1 6.3-21 14.6c-1.3 3.6-1.4 2.9-1.5-11.4V113h45v15.2zM42.5 142.5c1.4 1.3 2.5 3.6 2.5 5 0 3.3-4.2 7.5-7.5 7.5s-7.5-4.2-7.5-7.5 4.2-7.5 7.5-7.5c1.4 0 3.7 1.1 5 2.5zm437 0c1.4 1.3 2.5 3.6 2.5 5s-1.1 3.7-2.5 5c-1.3 1.4-3.6 2.5-5 2.5s-3.7-1.1-5-2.5c-1.4-1.3-2.5-3.6-2.5-5s1.1-3.7 2.5-5c1.3-1.4 3.6-2.5 5-2.5s3.7 1.1 5 2.5zM22 163c4.5 4.6 9.9 7 15.5 7 8.3 0 18.8-7.4 21.2-15 .8-2.7 1.1 4.6 1.2 32.5 0 32.2-.1 35.6-1.4 32-2.8-7.9-12.4-14.5-21-14.5s-18.2 6.6-21 14.5c-1.3 3.6-1.4.2-1.4-32 .1-27.9.4-35.2 1.2-32.5.6 1.9 3.2 5.5 5.7 8zm20.5 59.5c1.4 1.3 2.5 3.6 2.5 5 0 3.3-4.2 7.5-7.5 7.5s-7.5-4.2-7.5-7.5 4.2-7.5 7.5-7.5c1.4 0 3.7 1.1 5 2.5zm437 0c1.4 1.3 2.5 3.6 2.5 5s-1.1 3.7-2.5 5c-1.3 1.4-3.6 2.5-5 2.5s-3.7-1.1-5-2.5c-1.4-1.3-2.5-3.6-2.5-5s1.1-3.7 2.5-5c1.3-1.4 3.6-2.5 5-2.5s3.7 1.1 5 2.5zM22 243c4.5 4.6 9.9 7 15.5 7 8.3 0 18.8-7.4 21.2-15 .8-2.7 1.1 4.6 1.2 32.5 0 32.2-.1 35.6-1.4 32-2.8-7.9-12.4-14.5-21-14.5s-18.2 6.6-21 14.5c-1.3 3.6-1.4.2-1.4-32 .1-27.9.4-35.2 1.2-32.5.6 1.9 3.2 5.5 5.7 8zm437 0c4.5 4.6 9.9 7 15.5 7 8.3 0 18.8-7.4 21.2-15 .8-2.7 1.1 4.6 1.2 32.5 0 32.2-.1 35.6-1.4 32-2.8-7.9-12.4-14.5-21-14.5s-18.2 6.6-21 14.5c-1.3 3.6-1.4.2-1.4-32 .1-27.9.4-35.2 1.2-32.5.6 1.9 3.2 5.5 5.7 8zM42.5 302.5c1.4 1.3 2.5 3.6 2.5 5 0 3.3-4.2 7.5-7.5 7.5s-7.5-4.2-7.5-7.5c0-1.4 1.1-3.7 2.5-5 1.3-1.4 3.6-2.5 5-2.5s3.7 1.1 5 2.5zm437 0c1.4 1.3 2.5 3.6 2.5 5 0 3.3-4.2 7.5-7.5 7.5s-7.5-4.2-7.5-7.5 4.2-7.5 7.5-7.5c1.4 0 3.7 1.1 5 2.5zM21.8 322.9c9.5 9.4 21.9 9.5 31.2.1 2.5-2.5 5.1-6.1 5.7-8 .8-2.7 1.1 6.5 1.2 39.7L60 398H15l.1-43.3c.1-29.5.4-42.1 1-39.8.6 1.8 3.1 5.4 5.7 8zm437 0c9.5 9.4 21.9 9.5 31.2.1 2.5-2.5 5.1-6.1 5.7-8 .8-2.7 1.1 6.5 1.2 39.7l.1 43.3h-45l.1-43.3c.1-29.5.4-42.1 1-39.8.6 1.8 3.1 5.4 5.7 8zM278 330.5v7.5h-44v-15h44v7.5zm159 45V398h-15v-12.5c0-12-.1-12.7-2.5-15l-2.4-2.5H94.9l-2.4 2.5c-2.4 2.3-2.5 3-2.5 15V398H75v-45h362v22.5z"/><path d="M32.5 350.5c-2.4 2.3-2.5 2.8-2.5 17s.1 14.7 2.5 17c1.3 1.4 3.6 2.5 5 2.5s3.7-1.1 5-2.5c2.4-2.3 2.5-2.8 2.5-17s-.1-14.7-2.5-17c-1.3-1.4-3.6-2.5-5-2.5s-3.7 1.1-5 2.5zm437 0c-2.4 2.3-2.5 2.8-2.5 17s.1 14.7 2.5 17c1.3 1.4 3.6 2.5 5 2.5s3.7-1.1 5-2.5c2.4-2.3 2.5-2.8 2.5-17s-.1-14.7-2.5-17c-1.3-1.4-3.6-2.5-5-2.5s-3.7 1.1-5 2.5z"/></svg><svg version="1.0" viewBox="0 0 512 512" id="home" xmlns="http://www.w3.org/2000/svg"><path d="M154.4 106.2C50.2 210.6 54 206.5 51.9 218.9 47.7 244.5 73 267 97.6 259.5c2.7-.8 5-1.5 5.2-1.5.1 0 .2 10.1.2 22.5V303H66l-2.5-5c-6.7-13.1-20.4-20-35.3-17.7-10.4 1.5-20.1 8.8-24.9 18.6C.9 303.7.5 305.7.5 313c0 7.1.4 9.4 2.6 14 3.3 7 9.5 13.2 16.7 16.7 4.8 2.3 7 2.8 13.7 2.8 7.1 0 8.8-.4 14.7-3.3 7.4-3.6 12.9-9.1 16-16l1.9-4.2H103v42H39l-3.2 2.9-3.3 2.9-.3 19.6-.3 19.6-4.7 2.4c-5.7 3-12.2 9.6-15.3 15.6-3.4 6.7-3.8 18.6-.9 26.2 2.8 7.4 9.3 14.6 16.7 18.3 5.1 2.6 6.9 3 14.3 3 7.1 0 9.4-.4 14.1-2.6 15.1-7.1 22.9-23.9 18.4-39.4-2.9-10-9.5-17.8-18.3-21.7l-4.2-1.9V385h51v27.2l2.9 2.9c2.9 2.9 3.1 2.9 14 2.9h11l.3 26.9c.3 26.9.3 26.9 2.7 29.5 3.2 3.4 8 4.2 11.9 2.2 1.7-.9 3.4-2.2 3.9-2.8.4-.7 1-13.5 1.3-28.3l.5-27h18l.3 39.6.2 39.7 2.6 2.6c5.5 5.5 15.2 2.3 16.8-5.5.3-1.8.6-19.8.6-40.1v-36.9l8.8.3 8.7.3.2 26c.2 18.1.7 26.7 1.5 28.3 3 5.7 11.3 6.5 15.9 1.6 2.4-2.6 2.4-2.6 2.7-29.5l.3-26.9H246v79.2l2.9 2.9c3.9 3.8 9.7 4 13.8.5l2.8-2.4.3-40.1.3-40.1h17.8l.3 26.9c.3 26.9.3 26.9 2.7 29.5 4.6 4.9 12.9 4.1 15.9-1.6.8-1.6 1.3-10.2 1.5-28.3l.2-26 8.8-.3 8.7-.3v36.9c0 20.3.3 38.3.6 40.1 1.6 7.8 11.3 11 16.8 5.5l2.6-2.6.2-39.7.3-39.6h18l.5 27c.3 14.8.9 27.6 1.3 28.3.5.6 2.2 1.9 3.9 2.8 3.9 2 8.7 1.2 11.9-2.2 2.4-2.6 2.4-2.6 2.7-29.5l.3-26.9h11c10.9 0 11.1 0 14-2.9l2.9-2.9V385h51v24.9l-4.4 2c-6.3 2.7-12.8 9.1-16.2 15.8-2.5 5-2.9 6.9-2.9 14.3 0 7.1.4 9.4 2.6 14 3.7 8 8.1 12.5 15.7 16.2 6 3 7.6 3.3 15.2 3.3 7.4 0 9.2-.4 14.3-3 7.4-3.7 13.9-10.9 16.7-18.3 2.9-7.6 2.5-19.5-.9-26.2-3.1-6-9.6-12.6-15.3-15.6l-4.7-2.4-.3-19.6-.3-19.6-3.3-2.9-3.2-2.9h-64v-42h36.9l1.9 4.2c3.1 6.9 8.6 12.4 16 16 5.9 2.9 7.6 3.3 14.7 3.3 6.7 0 8.9-.5 13.7-2.8 7.2-3.5 13.4-9.7 16.7-16.7 3.5-7.3 3.6-20 .4-27.2-11.7-25.7-48.1-26.8-60.8-1.8l-2.5 5h-37v-22.6c0-21.1.1-22.6 1.7-21.9 17.2 6.5 37.8-1.5 45.8-17.9 5-10.3 5.1-21.9.3-32.5-1.6-3.4-11.5-14-38.4-41.1L382 130.5h-4.6c-6 0-9.4 3.5-9.4 9.8 0 4.1.3 4.4 34.9 39.2 19.3 19.2 35.5 36.3 36 37.8 1.6 4 1.4 11.3-.4 14.6-3.4 6.6-10.6 10-18.3 8.6-3.3-.6-12.5-9.4-81.2-78-52.5-52.4-78.4-77.6-80.3-78-1.5-.4-3.9-.4-5.5 0-1.8.4-27.7 25.6-80.2 78-68.7 68.6-77.9 77.4-81.3 78-6 1.1-10.7-.3-14.8-4.4-6.2-6.2-7.1-15-2.1-21.8 1.1-1.5 42.4-43.1 91.6-92.3L256 32.5l26.2 26.2c14.5 14.4 27.6 26.7 29.2 27.3 3.6 1.3 9.4-1.2 11.5-5.1 3.3-6 2.3-7.2-31.2-40.7L260.4 9h-8.9l-97.1 97.2zm168.3 69l66.3 66.3V398H123V241.5l66.2-66.2c36.5-36.5 66.5-66.3 66.8-66.3.3 0 30.3 29.8 66.7 66.2zm164 127.3c2.8 1.9 5.3 7.1 5.3 11.2 0 1.5-.9 4.2-2 6-7.5 12.4-25 7.5-25-7.1 0-3.8.6-5.2 3.3-8.2 5-5.4 11.9-6.1 18.4-1.9zm-444.1.8c3.1 2.8 3.7 4.2 4.1 8.4.4 4.1.1 5.9-1.6 8.6-4.1 6.7-13.4 8.4-19.5 3.6-10.6-8.4-5-23.9 8.7-23.9 4 0 5.3.5 8.3 3.3zm7 127.6c3.5 2.1 6.4 7.5 6.4 11.8 0 6-7.2 13.3-13.3 13.3-10.3 0-16.9-10.9-12.2-20.1 3.4-6.4 12.8-8.9 19.1-5zm426.5-.4c9.3 4.9 8.9 20.1-.6 24.1-6.9 2.8-13.6.6-17.5-5.8-6.9-11.4 6.1-24.5 18.1-18.3z"/><path d="M252.4 166.9c-1.2.5-3.1 2.2-4.3 3.7-2 2.5-2.1 3.8-2.1 21.5V211h-17.8l-.4-12.1-.3-12.1-3.4-3c-2.9-2.6-3.9-3-7.5-2.5-2.7.4-4.9 1.5-6.3 3.2-2.1 2.4-2.3 3.6-2.3 14.6V211h-5.1c-4.3 0-5.5.5-8 2.9-2.4 2.5-2.9 3.7-2.9 8v5.1h-11.9c-11 0-12.2.2-14.6 2.3-1.7 1.4-2.8 3.6-3.2 6.3-.5 3.6-.1 4.6 2.5 7.5l3 3.4 12.1.3 12.1.4V265h-38l-3.2 2.9c-2.7 2.4-3.3 3.6-3.3 7.1 0 3.5.6 4.7 3.3 7.1l3.2 2.9h38v17.8l-12.1.4-12.1.3-3 3.4c-2.6 2.9-3 3.9-2.5 7.5.4 2.7 1.5 4.9 3.2 6.3 2.4 2.1 3.6 2.3 14.6 2.3H192v5.1c0 4.3.5 5.5 2.9 8 2.5 2.4 3.7 2.9 8 2.9h5.1v11.9c0 11 .2 12.2 2.3 14.6 1.4 1.7 3.6 2.8 6.3 3.2 3.6.5 4.6.1 7.5-2.5l3.4-3 .3-12.1.4-12.1H246v38l2.9 3.2c2.4 2.7 3.6 3.3 7.1 3.3 3.5 0 4.7-.6 7.1-3.3l2.9-3.2v-38h17.8l.4 12.1.3 12.1 3.4 3c2.9 2.6 3.9 3 7.5 2.5 2.7-.4 4.9-1.5 6.3-3.2 2.1-2.4 2.3-3.6 2.3-14.6V339h5.1c4.3 0 5.5-.5 8-2.9 2.4-2.5 2.9-3.7 2.9-8V323h11.6c6.3 0 12.4-.5 13.5-1 2.4-1.3 4.9-6.1 4.9-9.4 0-1.4-1.3-4-2.9-5.8l-2.9-3.3-12.1-.3-12.1-.4V285h38l3.2-2.9c2.7-2.4 3.3-3.6 3.3-7.1 0-3.5-.6-4.7-3.3-7.1L358 265h-38v-17.8l12.1-.4 12.1-.3 2.9-3.3c1.6-1.8 2.9-4.4 2.9-5.8 0-3.3-2.5-8.1-4.9-9.4-1.1-.5-7.2-1-13.5-1H320v-5.1c0-4.3-.5-5.5-2.9-8-2.5-2.4-3.7-2.9-8-2.9H304v-11.9c0-11-.2-12.2-2.3-14.6-1.4-1.7-3.6-2.8-6.3-3.2-3.6-.5-4.6-.1-7.5 2.5l-3.4 3-.3 12.1-.4 12.1H266v-38l-2.7-3c-3-3.2-7.5-4.5-10.9-3.1zM300 275v44h-88v-88h88v44zm41.4-175.4c-6 2.9-7.3 10.7-2.5 15.5 5.4 5.4 14 3.2 16.2-4 1.4-4.7-.6-9.3-5.1-11.6-3.6-1.9-4.7-1.9-8.6.1z"/></svg><svg viewBox="0 0 6 10" id="icon-arrow-slider" xmlns="http://www.w3.org/2000/svg"><path d="M5.387 1.553a.375.375 0 010 .53L1.674 5.796a.375.375 0 01-.53 0l-.53-.53a.375.375 0 010-.531l3.712-3.712a.375.375 0 01.53 0l.53.53z"/><path d="M1.144 4.221a.375.375 0 01.53 0l3.713 3.713a.375.375 0 010 .53l-.53.53a.375.375 0 01-.531 0L.614 5.282a.375.375 0 010-.53l.53-.53z"/></svg><svg viewBox="0 0 35 26" id="icon-done" xmlns="http://www.w3.org/2000/svg"><path d="M33.185 5.777a3.17 3.17 0 000-4.454 3.102 3.102 0 00-4.415 0L12.247 17.995l-6.118-6.173a3.102 3.102 0 00-4.415 0 3.17 3.17 0 000 4.455l8.325 8.4a3.102 3.102 0 004.415 0l18.731-18.9z"/></svg><svg viewBox="0 0 512 512" id="icon_arrow-up" xmlns="http://www.w3.org/2000/svg"><path d="M256 48C141.13 48 48 141.13 48 256s93.13 208 208 208 208-93.13 208-208S370.87 48 256 48zm91.36 212.65a16 16 0 01-22.63.09L272 208.42V342a16 16 0 01-32 0V208.42l-52.73 52.32A16 16 0 11164.73 238l80-79.39a16 16 0 0122.54 0l80 79.39a16 16 0 01.09 22.65z"/></svg><svg version="1.0" viewBox="0 0 512 512" id="light" xmlns="http://www.w3.org/2000/svg"><path d="M278.5 1.9c-5.6 2.6-69.9 67.2-72 72.3-1.7 4.3-2 10.5-.5 14.2.5 1.4 2.8 4.6 5 7l4.1 4.5-61.4 68.8-61.4 68.8-6 1.7c-7.9 2.3-14.2 7.9-18.4 16.3-2.9 6-3.1 7-2.7 14.7.5 9.6 2.7 14.7 8.9 20.9 4.7 4.7 11.2 7.9 18 8.8l4.7.6 75.5 79.5 75.6 79.5-43 .5-43.1.5-2.4 2.8c-2.4 2.8-2.4 3.1-2.4 22.3 0 11.5.4 20.3 1 21.5 2.8 5.1-.8 4.9 108.5 4.9s105.7.2 108.5-4.9c.6-1.2 1-10.1 1-21.6v-19.7l-2.9-2.9-2.9-2.9h-87l-75.3-79.3c-41.4-43.5-78-82-81.3-85.5l-5.9-6.2 2.7-5c6.1-11.2 4.6-26.8-3.4-35.5-1.9-2-1.1-2.8 51.2-61.5 29.2-32.7 55-61.7 57.4-64.5l4.4-4.9 5.3 5.2 5.2 5.2 44.3-44.3C312.1 59.4 332 39 332 38.4c0-2-34.6-35.4-38.3-36.9-4.9-2-10.3-1.9-15.2.4z"/><path d="M305.3 101.3L257 149.5l19 43.4c10.4 23.8 19.7 44.4 20.5 45.8 2 2.9 6 4.6 9.5 3.8 1.7-.4 25.7-23.7 71.8-69.8l69.2-69.2v-4.2c0-2.9-.6-4.7-2.2-6.2C442.6 91 357.2 53 354.7 53c-.7 0-22.9 21.7-49.4 48.3zm91.3 90.6l-35.8 35.8 3.3 1.2c1.9.7 6.8 1.5 10.9 1.8 24.7 1.8 49.5-15.9 58.2-41.6 2.6-7.8 3-23.2.7-29.3l-1.4-3.8-35.9 35.9z"/></svg><svg viewBox="0 0 297 297" id="marker" xmlns="http://www.w3.org/2000/svg"><path d="M148.5 0C87.43 0 37.747 49.703 37.747 110.797c0 91.026 99.729 179.905 103.976 183.645a10.232 10.232 0 006.777 2.559c2.421 0 4.841-.853 6.778-2.559 4.245-3.739 103.975-92.618 103.975-183.645C259.253 49.703 209.57 0 148.5 0zm0 272.689c-22.049-21.366-90.243-93.029-90.243-161.892 0-49.784 40.483-90.287 90.243-90.287s90.243 40.503 90.243 90.287c0 68.862-68.194 140.525-90.243 161.892z"/><path d="M148.5 59.183c-28.273 0-51.274 23.154-51.274 51.614 0 28.461 23.001 51.614 51.274 51.614s51.274-23.153 51.274-51.614c0-28.46-23.001-51.614-51.274-51.614zm0 82.718c-16.964 0-30.765-13.953-30.765-31.104 0-17.15 13.801-31.104 30.765-31.104s30.765 13.953 30.765 31.104-13.801 31.104-30.765 31.104z"/></svg><svg viewBox="0 0 12 12" id="phone" xmlns="http://www.w3.org/2000/svg"><g clip-path="url(#hclip0_60_1688)"><path d="M2.4 5.2c.933 1.867 2.533 3.4 4.4 4.4l1.467-1.467c.2-.2.466-.266.666-.133.734.267 1.534.4 2.4.4.4 0 .667.267.667.667v2.266c0 .4-.267.667-.667.667A11.324 11.324 0 010 .667C0 .267.267 0 .667 0H3c.4 0 .667.267.667.667 0 .8.133 1.6.4 2.4.066.2 0 .466-.134.666L2.4 5.2z"/></g><defs><clipPath id="hclip0_60_1688"><path d="M0 0h12v12H0z"/></clipPath></defs></svg><svg version="1.0" viewBox="0 0 256 256" id="security" xmlns="http://www.w3.org/2000/svg"><path d="M231 12.9c-.6 1.3-1 14.8-1 37V85h-11.9l-.6-3.8c-1.2-7.9-4.1-15.8-7.1-19.8-2.2-2.8-3.4-5.8-3.9-9.4-.7-5.2-6.8-18.4-10.1-22.2-1-1-2.4-1.8-3.2-1.8C191.6 28 4.5 142.3 1.5 145.1c-2 1.9-2 2 1 7.6 3.4 6.3 11 15.2 14.8 17.2 2.5 1.3 2.5 1.5 1.1 4.3-1.8 3.5-1.2 6.1 2.1 7.8l2.4 1.3-3.6 6.7c-2.1 3.8-3.4 7.3-3 8.3.9 2.3 24.4 15.9 26.9 15.5 1.8-.2 7.4-7.8 9.1-12.2.1-.5 1.6-.2 3.2.6 1.7.9 3.7 1.3 4.6.9.8-.3 4.6-4 8.3-8.1 5.6-6.1 7.7-7.7 11.3-8.7 2.5-.6 8.9-3.9 14.4-7.2l10-6.1 7.2 5.3c14.7 10.9 19.6 18.9 19.5 31.8-.2 26.3 32.1 39.9 50.6 21.3l4.4-4.4h35l.7 5c.4 2.7 1.6 6.1 2.7 7.5 3.6 4.6 6.7 5.5 19.8 5.5h12v-69h-12.5c-17.1 0-20.3 1.9-22.1 12.9l-.7 4.1h-35.2l-3.6-3.8c-4.8-5.2-11.9-8.3-20.3-9.1l-7-.6-2.3-4.5c-2.7-5.3-5-13.8-5.9-21.8l-.6-5.8 30.8-18.8c17-10.4 32-19.8 33.2-21 2.6-2.3 5.6-7.6 6.6-11.9l.6-2.7h21V53.2c0-29.6-.3-40.1-1.2-41-1.8-1.8-4.6-1.4-5.8.7zm-36.2 30.5c4.9 9.8 5.3 22.1.9 27.1-3.8 4.2-155.8 96.6-159.8 97.2-6.8 1-18.7-6.7-23.8-15.2l-2-3.4 90.7-55.5c49.8-30.5 90.8-55.3 91.2-55.1.3.2 1.6 2.4 2.8 4.9zm13.9 36.4l.6 5.1-6.4.3c-6.2.3-6.4.4-6.7 3.2-.4 3.6 1 4.6 7.1 4.6 5.4 0 5.9 1 2.5 6-1.6 2.3-11.3 8.8-32.3 21.7-16.5 10.2-31.1 19-32.5 19.6-2.3 1.1-23 13.8-51 31.4-9.7 6.1-10.9 6.6-15.8 6.5-5.5-.1-15.3-4.4-18.7-8.2-1.9-2.1-11.8 4.3 78.5-51 38.8-23.7 70.9-43.8 71.4-44.7 1.3-2.3 2.6-.2 3.3 5.5zm-69.3 81.9c.9 4.9 3 11.6 4.6 15l2.9 6.3-3.2 2.1c-1.8 1.2-4.1 3.3-5.3 4.6l-2 2.4-4-5.2c-3.6-4.9-12.8-13.4-18.3-17-2.4-1.5-2.4-1.6 10-9.2 6.8-4.2 12.7-7.7 13-7.7.3 0 1.4 3.9 2.3 8.7zm-84.6 18c3.5 2.3 7.3 4.5 8.3 4.8 2.7.9 2.4 1.6-1.8 5.7l-3.8 3.7-14.4-8.4c-7.9-4.6-14.8-8.8-15.2-9.2-.4-.4 4-.8 9.9-.8h10.7l6.3 4.2zM247 210.5V237h-6.3c-11.1 0-10.7.9-10.7-26.9 0-17.1.3-24 1.2-24.9.7-.7 4.2-1.2 8.5-1.2h7.3v26.5zM37.9 192.1c3.9 2.2 7.1 4.3 7.1 4.5 0 .5-3 6.6-3.6 7.3-.2.2-3.1-1.3-6.6-3.3-9.9-5.6-9.4-4.9-6.9-9 1.3-2 2.4-3.6 2.6-3.6.2 0 3.5 1.8 7.4 4.1zm132.2-1.6c10.7 5.6 15.1 19 9.5 29.5-3.2 6.1-9.9 10.6-17.2 11.6-4.9.6-6.2.3-11.2-2.2-7.9-4.1-11.5-9.4-12-17.8-.4-5.5 0-7.1 2.3-11.4 4.5-8.3 12.2-12.6 20.9-11.6 2.7.3 6.1 1.1 7.7 1.9zM221 210v9h-30.7v-18H221v9z"/><path d="M154 194.1c-11.2 4.5-13.8 20.2-4.8 28.6 9.2 8.6 24.4 3.8 27.8-8.7 3.5-12.9-10.4-24.9-23-19.9zm12.8 10.1c3.4 3.3 3 8.9-.9 12.2-1.7 1.4-4.1 2.6-5.4 2.6-3.8 0-8.5-4.6-8.5-8.4 0-8.3 8.7-12 14.8-6.4z"/></svg><svg version="1.0" viewBox="0 0 862 980" id="swing" xmlns="http://www.w3.org/2000/svg"><path d="M422.5 1.4c-11.4 2.8-23.2 12.4-28 22.8-3.9 8.5-4.5 16.1-4.5 54.2 0 30.9-.2 35.7-1.5 35.3-.8-.4-13.2-7.5-27.7-15.8-14.5-8.4-28.5-16.2-31.3-17.3-3.7-1.5-7.4-2-14.5-2-8.7-.1-10.1.2-16.3 3.1-22.3 10.6-31.2 35-20.7 56.9 5.2 10.6 9.2 13.5 62.8 44.4l49.2 28.4v103.8c0 57.1-.2 103.8-.4 103.8s-24.6-14-54.2-31.1c-29.7-17.1-69.3-39.9-88.1-50.7l-34.2-19.7-.1-59c0-49.8-.2-60-1.5-65-6.9-26.2-35.1-39.4-59-27.6-11 5.4-19.7 16.4-22.4 28.2-.6 2.5-1.1 19.4-1.1 39.3 0 27.4-.3 34.7-1.2 34.3-.7-.2-15.7-8.7-33.3-18.9-17.6-10.1-34-19.2-36.5-20.2-6.8-2.7-17.4-3.2-24.5-1.1-13.2 3.7-22.1 11.3-27.8 23.3-3 6.2-3.2 7.5-3.2 17.3 0 10.1.1 10.8 3.8 18.1 2.5 5.1 5.3 9.1 8.6 12 2.6 2.4 19.2 12.6 36.9 22.8 17.7 10.2 32.1 18.7 32.1 19 0 .3-11.7 7.2-26.1 15.5-29.5 16.9-34 20.1-38.7 27.4-11.8 18.4-8.2 42.1 8.6 55.7 7.7 6.3 14.9 8.7 25.8 8.8 6.6.1 10.3-.4 13.9-1.8 2.8-1.1 26.4-14.3 52.5-29.3 26.1-15.1 47.8-27.5 48.1-27.6.9-.3 177 101.4 177 102.2 0 .3-39.2 23.2-87.1 50.8l-87 50.3-49.7-28.7c-29-16.7-52.2-29.4-55.7-30.6-4.7-1.5-7.9-1.8-14.3-1.4-33 1.9-50.5 39.7-30.9 66.4 5.2 7 7.4 8.5 41 27.8L87 640.3l-5.2 3.1c-2.9 1.8-18.4 10.8-34.5 20-16.1 9.3-30.8 18.2-32.7 19.7-6.8 5.7-12.4 16.6-14.1 27.4-.3 2.3-.1 7 .4 10.5 3.7 22.6 25.2 38.6 47.3 35.1 8-1.3 15.3-5 51.3-25.9l29-16.8.5 36 .5 36.1 3.2 6.8c4.3 8.9 11.9 16.9 20.2 21 6.2 3 7.1 3.2 18.1 3.2 10.9 0 11.8-.2 18.1-3.2 11.7-5.7 20.4-17.3 22.9-30.3.6-3.1 1-28.1 1-61.9v-56.6l87.9-50.8c48.3-27.9 88.2-50.7 88.5-50.7.3 0 .6 46 .6 102.2v102.3L340.3 796c-53.9 31-56.7 33-62.2 44.2-4.2 8.5-5.5 16.2-4.2 24.4 4 26.2 30.6 42.5 55.2 33.8 2.4-.8 17-8.8 32.4-17.8l28-16.2.5 41c.6 43.7.5 42.9 5.8 53.2 2.9 5.6 10.8 13.1 17.2 16.4 22.5 11.4 48.5 1.6 58.2-22 2.2-5.3 2.3-6.8 2.8-47.2l.5-41.7 28.4 16.4c15.6 9 30.5 17.1 33 18 20 6.8 42.2-2.8 51.4-22.2 3-6.3 3.2-7.6 3.2-17.3 0-9.7-.2-11-3.2-17.2-1.7-3.7-5.1-8.8-7.4-11.3-4.6-5-4.6-5-66.6-40.9L474 766.8V564.9l5.8 3.3c3.3 1.8 43.3 24.9 89 51.3l83.2 48v57.1c0 54.5.1 57.5 2 63.7 3.4 11 11.7 20.2 23 25.6 4.9 2.3 6.7 2.6 16.6 2.6 10.7 0 11.2-.1 18.6-3.8 10.9-5.3 17.8-13.5 22.1-26.2.5-1.7 1.3-18.1 1.6-36.6l.6-33.5 32.5 18.8c19.7 11.4 35 19.6 38.9 20.8 23.8 7.5 48.8-8.2 53.2-33.4 2.2-12.9-2.6-27-12.3-36.2-5.5-5.2-7.9-6.7-48.5-30C787 648.8 776 642.3 776 642c0-.3 12.9-8 28.6-17 19.1-11 30.6-18.3 34.5-21.8 15.9-14.6 18-38.4 4.9-55.8-10.5-13.9-29.6-19.8-46-14.1-3.6 1.3-28.7 15.1-56.3 31.1-42.6 24.6-50.2 28.7-52 27.8-1.2-.5-16.6-9.2-34.2-19.4s-55.6-32.1-84.5-48.7c-28.9-16.7-53.5-31-54.8-31.8-2.6-1.6-5.5.2 132.9-79.6l44.7-25.8 48.8 28.3c26.9 15.5 51.1 29 53.7 30 19.2 7.3 42.4-1.7 51.7-20.2 8.5-16.8 4.9-36.5-8.9-49.2-3.9-3.6-14.9-10.5-33.5-21.2-15.2-8.7-27.3-16.2-26.9-16.6.4-.4 13.2-7.8 28.3-16.5 15.1-8.7 30.4-17.7 34-20.1 23-15.1 25.5-46.8 5-65.7-8.5-7.9-14.6-10.1-28-10.2-13 0-12.5-.2-52.2 22.8-15.8 9.2-28.9 16.7-29.2 16.7-.4 0-.6-13.2-.6-29.3-.1-16-.5-32.4-.9-36.3-2-17-13-30.6-29-35.9-8.5-2.8-21.7-1.8-30.4 2.2-8.5 4-15.5 11.1-19.9 20l-3.3 6.8-.5 60.9-.5 61-88 50.8c-48.3 27.9-88.3 50.8-88.7 50.8-.5 0-.7-46-.6-102.2l.3-102.1 8-4.7c4.4-2.6 26.7-15.5 49.5-28.6 46.1-26.6 49.6-29.2 55.3-41.1 3-6.3 3.2-7.6 3.2-17.3 0-9.7-.2-11-3.2-17.2-10.3-21.7-34.6-30.7-55.7-20.4-3.9 1.9-18.3 9.9-32.1 17.9l-25 14.5-.5-41.6-.5-41.7-3.2-6.8c-8.7-18.4-28.4-28-47.8-23.3z"/></svg><svg viewBox="0 0 13 18" id="video_btn" xmlns="http://www.w3.org/2000/svg"><path fill-rule="evenodd" clip-rule="evenodd" d="M1.354.797a.911.911 0 01.567.197l9.95 7.237c.002 0 .002.001.003.002l.014.01a.911.911 0 01-.005 1.517l-9.987 7.265a.912.912 0 01-1.453-.737V1.708c0-.503.408-.911.911-.911z"/></svg></svg>